<svg xmlns="http://www.w3.org/2000/svg" width="18" height="18" viewBox="0 0 18 18">
  <g id="Icon" transform="translate(-7 -7)">
    <g id="Canvas" transform="translate(7 7)" fill="#6e6e6e" stroke="#6e6e6e" stroke-width="1" opacity="0">
      <rect width="18" height="18" stroke="none"/>
      <rect x="0.5" y="0.5" width="17" height="17" fill="none"/>
    </g>
    <path id="Path_102188" data-name="Path 102188" d="M7,8v9a1,1,0,0,0,1,1h9a1,1,0,0,0,1-1V8a1,1,0,0,0-1-1H8A1,1,0,0,0,7,8ZM9,9.75a.25.25,0,0,1-.25.25h-.5A.25.25,0,0,1,8,9.75V8.25A.25.25,0,0,1,8.25,8h.5A.25.25,0,0,1,9,8.25Zm0,3.5a.25.25,0,0,1-.25.25h-.5A.25.25,0,0,1,8,13.25v-1.5a.25.25,0,0,1,.25-.25h.5a.25.25,0,0,1,.25.25Zm0,3.5a.25.25,0,0,1-.25.25h-.5A.25.25,0,0,1,8,16.75v-1.5A.25.25,0,0,1,8.25,15h.5a.25.25,0,0,1,.25.25Zm8-7a.25.25,0,0,1-.25.25h-.5A.25.25,0,0,1,16,9.75V8.25A.25.25,0,0,1,16.25,8h.5a.25.25,0,0,1,.25.25Zm0,3.5a.25.25,0,0,1-.25.25h-.5a.25.25,0,0,1-.25-.25v-1.5a.25.25,0,0,1,.25-.25h.5a.25.25,0,0,1,.25.25Zm0,3.5a.25.25,0,0,1-.25.25h-.5a.25.25,0,0,1-.25-.25v-1.5a.25.25,0,0,1,.25-.25h.5a.25.25,0,0,1,.25.25ZM14.75,13h-4.5a.25.25,0,0,1-.25-.25v-.5a.25.25,0,0,1,.25-.25h4.5a.25.25,0,0,1,.25.25v.5A.25.25,0,0,1,14.75,13Z" transform="translate(7 7)" fill="#6e6e6e"/>
    <g id="Ellipse_10229" data-name="Ellipse 10229" transform="translate(18.25 10.25)" fill="#6e6e6e" stroke="#6e6e6e" stroke-width="1">
      <circle cx="1.25" cy="1.25" r="1.25" stroke="none"/>
      <circle cx="1.25" cy="1.25" r="0.75" fill="none"/>
    </g>
    <path id="Path_102189" data-name="Path 102189" d="M6,6.172l-.364-.364a1,1,0,0,0-1.414,0L1,9.03V2H15V6h1V1.5a.5.5,0,0,0-.5-.5H.5a.5.5,0,0,0-.5.5v11a.5.5,0,0,0,.5.5H6Z" transform="translate(7 7)" fill="#6e6e6e"/>
  </g>
</svg>
