<svg xmlns="http://www.w3.org/2000/svg" width="24" height="23.4" viewBox="0 0 24 23.4">
  <g id="ec_shell_ontile_24" transform="translate(0 -0.3)">
    <rect id="Rectangle_139053" data-name="Rectangle 139053" width="24" height="23.4" rx="4.25" transform="translate(0 0.3)" fill="#fa0f00"/>
    <path id="_256" data-name="256" d="M18.675,17.9H15.821a.625.625,0,0,1-.585-.377l-3.1-7.236a.137.137,0,0,0-.261,0l-1.93,4.594a.163.163,0,0,0,.151.227h2.122a.327.327,0,0,1,.3.2l.929,2.065a.381.381,0,0,1-.351.53H5.374a.352.352,0,0,1-.322-.49L9.966,5.714A.665.665,0,0,1,10.59,5.3h2.834a.663.663,0,0,1,.624.414L19,17.4a.352.352,0,0,1-.32.49Z" transform="translate(-0.024)" fill="#fff"/>
  </g>
</svg>
