<svg id="Single_icon" data-name="Single icon" xmlns="http://www.w3.org/2000/svg" width="18" height="18" viewBox="0 0 18 18">
  <g id="Placement_Area" data-name="Placement Area" fill="red" stroke="rgba(0,0,0,0)" stroke-width="1" opacity="0">
    <rect width="18" height="18" stroke="none"/>
    <rect x="0.5" y="0.5" width="17" height="17" fill="none"/>
  </g>
  <g id="Icon">
    <g id="Canvas" fill="#6e6e6e" stroke="#6e6e6e" stroke-width="1" opacity="0">
      <rect width="18" height="18" stroke="none"/>
      <rect x="0.5" y="0.5" width="17" height="17" fill="none"/>
    </g>
    <path id="Path_94143" data-name="Path 94143" d="M9.5,7a.5.5,0,0,1,.5.5v6a.5.5,0,0,1-.5.5H4.793a.5.5,0,0,0-.353.146L3,15.585V14.5a.5.5,0,0,0-.5-.5h-1a.5.5,0,0,1-.5-.5v-6A.5.5,0,0,1,1.5,7Zm-8-1A1.5,1.5,0,0,0,0,7.5v6A1.5,1.5,0,0,0,1.5,15H2v2.4a.25.25,0,0,0,.427.177L5,15H9.5A1.5,1.5,0,0,0,11,13.5v-6A1.5,1.5,0,0,0,9.5,6Z" fill="#6e6e6e"/>
    <path id="Path_94144" data-name="Path 94144" d="M12,7.3A2.3,2.3,0,0,0,9.7,5H6V2.5A1.5,1.5,0,0,1,7.5,1h9A1.5,1.5,0,0,1,18,2.5v6A1.5,1.5,0,0,1,16.5,10H15v2.4a.25.25,0,0,1-.427.177L12,10Z" fill="#6e6e6e"/>
  </g>
</svg>
