<svg id="Bell_Icon" data-name="Bell Icon" xmlns="http://www.w3.org/2000/svg" width="18" height="18" viewBox="0 0 18 18">
  <rect id="Canvas" width="18" height="18" fill="#ff13dc" opacity="0"/>
  <path id="Path_36259" data-name="Path 36259" d="M9,18a2.2,2.2,0,0,0,2-2H7A2.2,2.2,0,0,0,9,18Z" fill="#a2a2a2"/>
  <path id="Path_36260" data-name="Path 36260" d="M13.571,5.692c0-1.718-1.6-2.445-3.571-2.634V1.5A.539.539,0,0,0,9.429,1H8.571A.539.539,0,0,0,8,1.5V3.058c-1.968.189-3.571.916-3.571,2.634C4.429,13.4,2,13.056,2,14.077V15H16v-.923C16,13,13.571,13.4,13.571,5.692Z" fill="#a2a2a2"/>
</svg>
