<svg id="Single_icon" data-name="Single icon" xmlns="http://www.w3.org/2000/svg" width="18" height="18" viewBox="0 0 18 18">
  <g id="Placement_Area" data-name="Placement Area" fill="red" stroke="rgba(0,0,0,0)" stroke-width="1" opacity="0">
    <rect width="18" height="18" stroke="none"/>
    <rect x="0.5" y="0.5" width="17" height="17" fill="none"/>
  </g>
  <g id="Icon">
    <g id="Canvas" fill="#6e6e6e" stroke="#6e6e6e" stroke-width="1" opacity="0">
      <rect width="18" height="18" stroke="none"/>
      <rect x="0.5" y="0.5" width="17" height="17" fill="none"/>
    </g>
    <g id="Ellipse_10221" data-name="Ellipse 10221" transform="translate(6.899 6.899)" fill="#6e6e6e" stroke="#6e6e6e" stroke-width="1">
      <circle cx="2.101" cy="2.101" r="2.101" stroke="none"/>
      <circle cx="2.101" cy="2.101" r="1.601" fill="none"/>
    </g>
    <path id="Path_94147" data-name="Path 94147" d="M13.075,9.75a4.123,4.123,0,0,1-5.6,3.1L5.418,16.143A7.984,7.984,0,0,0,16.962,9.75Z" fill="#6e6e6e"/>
    <path id="Path_94148" data-name="Path 94148" d="M9.75,4.925a4.134,4.134,0,0,1,2.13,1.1l3.16-2.257A7.976,7.976,0,0,0,9.75,1.038Z" fill="#6e6e6e"/>
    <path id="Path_94149" data-name="Path 94149" d="M15.911,4.985,12.75,7.245a4.111,4.111,0,0,1,.326,1.005h3.888a7.934,7.934,0,0,0-1.053-3.265Z" fill="#6e6e6e"/>
    <path id="Path_94150" data-name="Path 94150" d="M6.208,12.05A4.13,4.13,0,0,1,8.25,4.925V1.038a7.991,7.991,0,0,0-4.1,14.312Z" fill="#6e6e6e"/>
  </g>
</svg>
