<svg id="Single_icon" data-name="Single icon" xmlns="http://www.w3.org/2000/svg" width="18" height="18.003" viewBox="0 0 18 18.003">
  <g id="Placement_Area" data-name="Placement Area" transform="translate(0 0.003)" fill="red" stroke="rgba(0,0,0,0)" stroke-width="1" opacity="0">
    <rect width="18" height="18" stroke="none"/>
    <rect x="0.5" y="0.5" width="17" height="17" fill="none"/>
  </g>
  <g id="Icon">
    <g id="Canvas" transform="translate(0 0.003)" fill="#6e6e6e" stroke="#6e6e6e" stroke-width="1" opacity="0">
      <rect width="18" height="18" stroke="none"/>
      <rect x="0.5" y="0.5" width="17" height="17" fill="none"/>
    </g>
    <path id="Path_101899" data-name="Path 101899" d="M6.81,12.96a6.144,6.144,0,0,1,2.713-5.1.74.74,0,0,1,.166-.377,5.387,5.387,0,0,0,.981-1.84,4.953,4.953,0,0,0,.288-1.573A5.4,5.4,0,0,0,10.7,2.357,3.179,3.179,0,0,0,7.481,0,3.4,3.4,0,0,0,5.456.614a3.016,3.016,0,0,0-.65.665A4.511,4.511,0,0,0,3.982,4.05a4.727,4.727,0,0,0,.138,1.067A5.488,5.488,0,0,0,5.25,7.5a.722.722,0,0,1,.183.465c.016.418.042.733.042,1.016a.716.716,0,0,1-.625.722C.667,10.071.014,12.932.014,14.06c0,.125.024.763.024.763H7.1a6.142,6.142,0,0,1-.29-1.863Z" transform="translate(0 0.003)" fill="#6e6e6e"/>
    <path id="Path_101900" data-name="Path 101900" d="M17.615,12.271H16.407a3.49,3.49,0,0,0-.51-1.238l.86-.86a.345.345,0,0,0,0-.487l-.522-.523a.345.345,0,0,0-.488,0l-.86.86a3.491,3.491,0,0,0-1.238-.51V8.305a.345.345,0,0,0-.345-.345h-.69a.345.345,0,0,0-.345.345V9.512a3.492,3.492,0,0,0-1.238.51l-.86-.86a.345.345,0,0,0-.487,0l-.523.523a.345.345,0,0,0,0,.488l.86.86a3.49,3.49,0,0,0-.51,1.238H8.305a.345.345,0,0,0-.345.345v.689a.345.345,0,0,0,.345.345H9.512a3.49,3.49,0,0,0,.51,1.238l-.86.86a.345.345,0,0,0,0,.487h0l.523.522a.345.345,0,0,0,.488,0l.86-.86a3.491,3.491,0,0,0,1.238.51v1.207a.345.345,0,0,0,.345.345h.69a.345.345,0,0,0,.345-.345V16.407a3.491,3.491,0,0,0,1.238-.51l.86.86a.345.345,0,0,0,.487,0l.523-.522a.345.345,0,0,0,0-.487h0l-.86-.86a3.49,3.49,0,0,0,.51-1.238h1.208a.345.345,0,0,0,.345-.345v-.69a.345.345,0,0,0-.345-.345ZM12.96,14.757a1.8,1.8,0,1,1,1.8-1.8,1.8,1.8,0,0,1-1.8,1.8Z" transform="translate(0 0.003)" fill="#6e6e6e"/>
  </g>
</svg>
