<svg xmlns="http://www.w3.org/2000/svg" width="32" height="32" viewBox="0 0 32 32">
  <g id="App_Icon" data-name="App Icon" transform="translate(-1107 -8)">
    <g id="Background" transform="translate(1107 8)" fill="#eaeaea" stroke="#eaeaea" stroke-width="1" opacity="0">
      <rect width="32" height="32" rx="5" stroke="none"/>
      <rect x="0.5" y="0.5" width="31" height="31" rx="4.5" fill="none"/>
    </g>
    <g id="App_Icon-2" data-name="App Icon" transform="translate(1114 15)">
      <rect id="Canvas" width="18" height="18" fill="#ff13dc" opacity="0"/>
      <rect id="Rectangle_138882" data-name="Rectangle 138882" width="3" height="3" rx="0.5" transform="translate(1.5 1.5)" fill="#a2a2a2"/>
      <rect id="Rectangle_138883" data-name="Rectangle 138883" width="3" height="3" rx="0.5" transform="translate(7.5 1.5)" fill="#a2a2a2"/>
      <rect id="Rectangle_138884" data-name="Rectangle 138884" width="3" height="3" rx="0.5" transform="translate(13.5 1.5)" fill="#a2a2a2"/>
      <rect id="Rectangle_138885" data-name="Rectangle 138885" width="3" height="3" rx="0.5" transform="translate(1.5 7.5)" fill="#a2a2a2"/>
      <rect id="Rectangle_138886" data-name="Rectangle 138886" width="3" height="3" rx="0.5" transform="translate(7.5 7.5)" fill="#a2a2a2"/>
      <rect id="Rectangle_138887" data-name="Rectangle 138887" width="3" height="3" rx="0.5" transform="translate(13.5 7.5)" fill="#a2a2a2"/>
      <rect id="Rectangle_138888" data-name="Rectangle 138888" width="3" height="3" rx="0.5" transform="translate(1.5 13.5)" fill="#a2a2a2"/>
      <rect id="Rectangle_138889" data-name="Rectangle 138889" width="3" height="3" rx="0.5" transform="translate(7.5 13.5)" fill="#a2a2a2"/>
      <rect id="Rectangle_138890" data-name="Rectangle 138890" width="3" height="3" rx="0.5" transform="translate(13.5 13.5)" fill="#a2a2a2"/>
    </g>
  </g>
</svg>
